<svg xmlns="http://www.w3.org/2000/svg" viewBox="0 0 1600 950" role="img" aria-labelledby="title desc">
  <title id="title">Shawn's Pressure Washing service truck</title>
  <desc id="desc">A bold illustrated pressure washing service truck with water spray, cleaning equipment, and Shawn's Pressure Washing branding.</desc>
  <defs>
    <linearGradient id="sky" x1="0" x2="1" y1="0" y2="1">
      <stop offset="0" stop-color="#dff9ff"/>
      <stop offset="0.55" stop-color="#f8fff8"/>
      <stop offset="1" stop-color="#fff0ba"/>
    </linearGradient>
    <linearGradient id="road" x1="0" x2="0" y1="0" y2="1">
      <stop offset="0" stop-color="#7d8883"/>
      <stop offset="1" stop-color="#3b4441"/>
    </linearGradient>
    <linearGradient id="truckBody" x1="0" x2="1" y1="0" y2="1">
      <stop offset="0" stop-color="#ffffff"/>
      <stop offset="0.72" stop-color="#dff9ff"/>
      <stop offset="1" stop-color="#bfefff"/>
    </linearGradient>
    <linearGradient id="cab" x1="0" x2="1" y1="0" y2="1">
      <stop offset="0" stop-color="#ffe087"/>
      <stop offset="1" stop-color="#f4663a"/>
    </linearGradient>
    <filter id="softShadow" x="-20%" y="-20%" width="140%" height="150%">
      <feDropShadow dx="0" dy="20" stdDeviation="18" flood-color="#101614" flood-opacity="0.28"/>
    </filter>
    <pattern id="sprayDots" width="42" height="42" patternUnits="userSpaceOnUse">
      <circle cx="8" cy="10" r="3" fill="#53d7ff" opacity="0.48"/>
      <circle cx="26" cy="28" r="2" fill="#bfefff" opacity="0.7"/>
    </pattern>
  </defs>

  <rect width="1600" height="950" fill="url(#sky)"/>
  <circle cx="1392" cy="126" r="96" fill="#ffcf57" opacity="0.68"/>
  <path d="M0 186h1600v304H0z" fill="#e9f4ed"/>
  <path d="M0 420c155-42 292-37 412 17s263 59 429 15 316-33 449 35 237 80 310 37v112H0z" fill="#5fc777" opacity="0.42"/>

  <g opacity="0.9">
    <path d="M78 303h220v174H78z" fill="#c55f45"/>
    <path d="M110 248h188v62H94z" fill="#8b7466"/>
    <path d="M116 336h45v58h-45zm76 0h73v42h-73z" fill="#25312d" opacity="0.82"/>
    <path d="M382 282h286v196H382z" fill="#f2eedb"/>
    <path d="M354 250h330l-30 46H374z" fill="#24433f"/>
    <path d="M414 326h76v50h-76zm108 0h96v50h-96z" fill="#bfefff" opacity="0.78"/>
    <path d="M1160 292h274v186h-274z" fill="#fff7df"/>
    <path d="M1138 256h320l-22 48h-278z" fill="#f4663a"/>
    <path d="M1204 332h72v54h-72zm104 0h76v54h-76z" fill="#bfefff" opacity="0.78"/>
  </g>

  <g opacity="0.38" stroke="#24433f" stroke-width="5">
    <path d="M75 238c216-64 368-56 456 24s233 79 434-4 364-51 489 93" fill="none"/>
    <path d="M100 186c252 66 433 67 543 2s271-59 484 19" fill="none"/>
  </g>

  <path d="M0 505h1600v445H0z" fill="url(#road)"/>
  <path d="M-60 711c260-22 530-32 810-29s592 27 910 73v66c-302-49-612-77-930-83s-579 7-790 37z" fill="#101614" opacity="0.2"/>
  <path d="M112 631h310m104 0h314m108 0h330m-32 190h300M5 816h350" stroke="#ffcf57" stroke-width="12" stroke-linecap="round" opacity="0.84"/>

  <g transform="translate(560 220)" filter="url(#softShadow)">
    <ellipse cx="456" cy="542" rx="480" ry="72" fill="#101614" opacity="0.32"/>
    <path d="M56 438h840c36 0 66 29 66 66v34H18v-62c0-21 17-38 38-38z" fill="#101614"/>
    <path d="M62 186c0-24 19-43 43-43h556c24 0 43 19 43 43v249H62z" fill="url(#truckBody)" stroke="#101614" stroke-width="12" stroke-linejoin="round"/>
    <path d="M704 250c0-35 28-63 63-63h119c22 0 43 12 54 31l74 133c9 16 13 33 13 51v34H704z" fill="url(#cab)" stroke="#101614" stroke-width="12" stroke-linejoin="round"/>
    <path d="M758 224h103c18 0 34 10 42 26l43 86H758z" fill="#bfefff" stroke="#101614" stroke-width="10"/>
    <path d="M724 364h277v72H724z" fill="#f8fff8" opacity="0.88"/>
    <path d="M110 203h544v196H110z" fill="#17211d" stroke="#101614" stroke-width="8"/>
    <path d="M136 229h492v144H136z" fill="#f8fff8"/>
    <path d="M158 244h448v38H158z" fill="#53d7ff" opacity="0.2"/>
    <text x="170" y="310" font-family="Impact, 'Arial Black', sans-serif" font-size="76" fill="#53d7ff" stroke="#101614" stroke-width="7" paint-order="stroke" letter-spacing="1">SHAWN'S</text>
    <text x="174" y="358" font-family="Impact, 'Arial Black', sans-serif" font-size="38" fill="#101614" letter-spacing="1.5">PRESSURE WASHING</text>
    <text x="176" y="390" font-family="'Trebuchet MS', sans-serif" font-size="22" font-weight="900" fill="#24433f">INDUSTRIAL + RESIDENTIAL</text>
    <path d="M123 417h540v21H123z" fill="#ffcf57"/>
    <path d="M728 377h96" stroke="#101614" stroke-width="8" stroke-linecap="round"/>
    <path d="M879 408h77" stroke="#101614" stroke-width="10" stroke-linecap="round"/>
    <circle cx="180" cy="503" r="84" fill="#101614"/>
    <circle cx="180" cy="503" r="52" fill="#dfe6e2"/>
    <circle cx="180" cy="503" r="22" fill="#7d8883"/>
    <circle cx="778" cy="503" r="84" fill="#101614"/>
    <circle cx="778" cy="503" r="52" fill="#dfe6e2"/>
    <circle cx="778" cy="503" r="22" fill="#7d8883"/>
    <path d="M58 451h900" stroke="#25312d" stroke-width="16" stroke-linecap="round"/>
    <path d="M346 119h188c25 0 46 21 46 46v20H300v-20c0-25 21-46 46-46z" fill="#f8fff8" stroke="#101614" stroke-width="10"/>
    <path d="M335 95h36v51h-36zm156 0h36v51h-36z" fill="#101614"/>
    <circle cx="616" cy="178" r="66" fill="#101614"/>
    <circle cx="616" cy="178" r="39" fill="#ffcf57"/>
    <path d="M581 178h70m-35-35v70" stroke="#101614" stroke-width="9" stroke-linecap="round"/>
    <path d="M610 138c-102 5-168 45-199 120" fill="none" stroke="#101614" stroke-width="12" stroke-linecap="round"/>
    <path d="M406 257c-85 36-140 82-166 139" fill="none" stroke="#53d7ff" stroke-width="9" stroke-linecap="round"/>
    <path d="M118 401c-38 6-76 16-114 30" fill="none" stroke="#bfefff" stroke-width="8" stroke-linecap="round"/>
  </g>

  <g opacity="0.78">
    <path d="M105 526c116-55 253-60 410-15" fill="none" stroke="#53d7ff" stroke-width="16" stroke-linecap="round"/>
    <path d="M71 594c130-44 277-43 441 4" fill="none" stroke="#bfefff" stroke-width="9" stroke-linecap="round"/>
    <path d="M0 536h524v200H0z" fill="url(#sprayDots)" opacity="0.58"/>
    <circle cx="224" cy="530" r="8" fill="#f8fff8"/>
    <circle cx="346" cy="570" r="6" fill="#53d7ff"/>
    <circle cx="472" cy="526" r="5" fill="#bfefff"/>
  </g>

  <g opacity="0.24">
    <path d="M-40 748c180-42 384-47 612-14" fill="none" stroke="#f8fff8" stroke-width="10" stroke-linecap="round"/>
    <path d="M854 792c166-23 342-16 528 21" fill="none" stroke="#f8fff8" stroke-width="9" stroke-linecap="round"/>
  </g>
</svg>
