<svg xmlns="http://www.w3.org/2000/svg" viewBox="0 0 1600 950" role="img" aria-labelledby="title desc">
  <title id="title">Pressure washing rider mascot on a cruiser motorcycle</title>
  <desc id="desc">A stylized middle-aged blonde rider with blue eyes sitting on a black cruiser motorcycle while a pressure washer spray arcs across a driveway.</desc>
  <defs>
    <linearGradient id="sky" x1="0" y1="0" x2="1" y2="1">
      <stop offset="0" stop-color="#17211d"/>
      <stop offset="0.45" stop-color="#24433f"/>
      <stop offset="1" stop-color="#f4663a"/>
    </linearGradient>
    <linearGradient id="asphalt" x1="0" y1="0" x2="1" y2="0">
      <stop offset="0" stop-color="#151917"/>
      <stop offset="0.65" stop-color="#2d3530"/>
      <stop offset="1" stop-color="#0f1110"/>
    </linearGradient>
    <linearGradient id="chrome" x1="0" y1="0" x2="1" y2="1">
      <stop offset="0" stop-color="#f8fbff"/>
      <stop offset="0.32" stop-color="#90d8ef"/>
      <stop offset="0.62" stop-color="#53636b"/>
      <stop offset="1" stop-color="#f2f7f7"/>
    </linearGradient>
    <linearGradient id="spray" x1="0" y1="0" x2="1" y2="0">
      <stop offset="0" stop-color="#e9ffff" stop-opacity="0.95"/>
      <stop offset="0.55" stop-color="#74ddff" stop-opacity="0.8"/>
      <stop offset="1" stop-color="#e9ffff" stop-opacity="0"/>
    </linearGradient>
    <radialGradient id="headlight" cx="50%" cy="50%" r="50%">
      <stop offset="0" stop-color="#fff8bd"/>
      <stop offset="0.55" stop-color="#ffd45b" stop-opacity="0.75"/>
      <stop offset="1" stop-color="#ffd45b" stop-opacity="0"/>
    </radialGradient>
    <pattern id="foamDots" width="42" height="42" patternUnits="userSpaceOnUse">
      <circle cx="7" cy="9" r="2.5" fill="#f7fff7" opacity="0.42"/>
      <circle cx="27" cy="25" r="3" fill="#9be7ff" opacity="0.38"/>
      <circle cx="38" cy="6" r="1.8" fill="#f7fff7" opacity="0.32"/>
    </pattern>
    <filter id="softShadow" x="-30%" y="-30%" width="160%" height="160%">
      <feDropShadow dx="0" dy="14" stdDeviation="18" flood-color="#06100d" flood-opacity="0.55"/>
    </filter>
  </defs>

  <rect width="1600" height="950" fill="url(#sky)"/>
  <path d="M0 664 C260 596 454 650 710 599 C1010 539 1250 571 1600 499 L1600 950 L0 950 Z" fill="url(#asphalt)"/>
  <path d="M0 714 C236 676 480 707 722 664 C982 619 1237 621 1600 556" fill="none" stroke="#ffffff" stroke-width="5" opacity="0.11"/>
  <path d="M0 771 C337 730 561 760 824 710 C1064 665 1260 681 1600 616" fill="none" stroke="#ffcf57" stroke-width="3" opacity="0.16"/>

  <g opacity="0.28">
    <path d="M-18 206 C260 166 430 190 608 142 C838 80 1084 112 1618 42" fill="none" stroke="#fef7dd" stroke-width="3"/>
    <path d="M-18 255 C268 219 447 246 642 192 C890 123 1076 166 1618 86" fill="none" stroke="#7ee8ff" stroke-width="2"/>
    <path d="M-18 304 C306 276 464 294 681 238 C920 177 1128 224 1618 132" fill="none" stroke="#f4663a" stroke-width="2"/>
  </g>

  <g transform="translate(932 476)" opacity="0.95">
    <path d="M-214 108 C-82 -24 98 -98 332 -112 C192 -6 108 108 38 246 C-40 215 -138 172 -214 108 Z" fill="url(#spray)"/>
    <path d="M-192 112 C-48 15 81 -49 248 -69" fill="none" stroke="#eaffff" stroke-width="8" stroke-linecap="round" opacity="0.8"/>
    <path d="M-161 147 C-24 70 68 23 182 12" fill="none" stroke="#8feaff" stroke-width="5" stroke-linecap="round" opacity="0.7"/>
    <path d="M-128 184 C-12 132 55 96 120 91" fill="none" stroke="#faffff" stroke-width="3" stroke-linecap="round" opacity="0.65"/>
  </g>

  <g transform="translate(180 604)">
    <ellipse cx="510" cy="268" rx="466" ry="54" fill="#07100e" opacity="0.58"/>
    <ellipse cx="969" cy="205" rx="266" ry="34" fill="#091411" opacity="0.38"/>
  </g>

  <g transform="translate(358 446)" filter="url(#softShadow)">
    <g>
      <circle cx="145" cy="258" r="116" fill="#101614"/>
      <circle cx="145" cy="258" r="83" fill="#232b27" stroke="#dbe9e8" stroke-width="10"/>
      <circle cx="145" cy="258" r="27" fill="url(#chrome)"/>
      <circle cx="797" cy="258" r="116" fill="#101614"/>
      <circle cx="797" cy="258" r="83" fill="#232b27" stroke="#dbe9e8" stroke-width="10"/>
      <circle cx="797" cy="258" r="27" fill="url(#chrome)"/>
      <path d="M214 246 L351 139 L536 159 L703 248" fill="none" stroke="url(#chrome)" stroke-width="18" stroke-linecap="round" stroke-linejoin="round"/>
      <path d="M349 140 L290 252 H646 L534 159" fill="none" stroke="#161f1c" stroke-width="22" stroke-linecap="round" stroke-linejoin="round"/>
      <path d="M296 217 C390 169 526 157 631 216 C592 252 385 259 296 217 Z" fill="#f4663a"/>
      <path d="M326 204 C413 175 520 176 592 207" fill="none" stroke="#ffcf57" stroke-width="10" stroke-linecap="round"/>
      <path d="M540 144 C598 119 673 116 730 140 L693 175 C638 157 581 159 540 181 Z" fill="#111714"/>
      <path d="M725 142 L821 154 L844 185 L735 184 Z" fill="#121917"/>
      <path d="M842 182 C902 184 936 200 966 234" fill="none" stroke="url(#chrome)" stroke-width="15" stroke-linecap="round"/>
      <circle cx="958" cy="235" r="44" fill="url(#headlight)"/>
      <path d="M388 110 C418 82 476 77 523 100" fill="none" stroke="url(#chrome)" stroke-width="13" stroke-linecap="round"/>
      <path d="M506 100 C538 96 581 84 618 60" fill="none" stroke="url(#chrome)" stroke-width="12" stroke-linecap="round"/>
      <path d="M613 58 L682 50" fill="none" stroke="#111714" stroke-width="15" stroke-linecap="round"/>
      <path d="M668 38 L708 63" fill="none" stroke="url(#chrome)" stroke-width="8" stroke-linecap="round"/>
      <path d="M257 221 C230 191 225 162 239 129 C268 144 292 176 302 218 Z" fill="#111714"/>
      <path d="M221 129 C191 124 166 138 150 166" fill="none" stroke="url(#chrome)" stroke-width="9" stroke-linecap="round"/>
      <path d="M407 263 C474 302 569 302 652 263" fill="none" stroke="#ffe5ae" stroke-width="13" stroke-linecap="round" opacity="0.9"/>
    </g>

    <g transform="translate(420 -45)">
      <path d="M106 160 C122 116 179 103 217 126 C239 140 251 165 253 194 C255 233 232 258 195 266 C150 276 106 246 101 203 C99 188 101 174 106 160 Z" fill="#f0bc91"/>
      <path d="M101 160 C121 91 206 81 247 132 C222 127 194 132 177 150 C151 141 126 145 101 160 Z" fill="#ffc848"/>
      <path d="M91 177 C118 121 170 105 218 114 C206 81 149 68 112 91 C78 113 71 146 91 177 Z" fill="#ffd96a"/>
      <path d="M245 160 C264 179 263 206 247 224 C251 197 248 178 235 160 Z" fill="#dfa47b"/>
      <path d="M133 184 C146 174 162 174 173 184" fill="none" stroke="#2c5cff" stroke-width="8" stroke-linecap="round"/>
      <path d="M207 184 C218 174 233 174 244 184" fill="none" stroke="#2c5cff" stroke-width="8" stroke-linecap="round"/>
      <path d="M160 224 C184 240 210 240 231 222" fill="none" stroke="#7a342b" stroke-width="8" stroke-linecap="round"/>
      <path d="M142 207 C183 215 212 215 241 205" fill="none" stroke="#d7a77e" stroke-width="5" stroke-linecap="round" opacity="0.7"/>
      <path d="M114 109 C143 72 211 70 254 107 C229 98 177 99 136 120 Z" fill="#161a19"/>
      <path d="M106 108 C142 84 219 83 266 110" fill="none" stroke="#f5f8f3" stroke-width="8" stroke-linecap="round" opacity="0.55"/>
      <path d="M121 266 C146 315 228 320 250 267 C279 291 301 336 300 395 C233 425 141 419 83 390 C84 336 94 294 121 266 Z" fill="#17211d" stroke="#ffcf57" stroke-width="8" stroke-linejoin="round"/>
      <path d="M151 279 C169 299 207 301 231 279 L253 372 C214 391 159 389 122 372 Z" fill="#ffcf57"/>
      <path d="M87 376 C140 408 228 415 299 388 L316 502 L52 505 Z" fill="#f4663a" stroke="#101614" stroke-width="8" stroke-linejoin="round"/>
      <path d="M101 398 C146 427 232 432 286 401" fill="none" stroke="#ffcf57" stroke-width="11" stroke-linecap="round"/>
      <path d="M81 326 L-8 394 L34 433 L114 376 Z" fill="#17211d" stroke="#ffcf57" stroke-width="7" stroke-linejoin="round"/>
      <path d="M289 329 L388 394 L357 440 L277 381 Z" fill="#17211d" stroke="#ffcf57" stroke-width="7" stroke-linejoin="round"/>
      <path d="M376 386 L524 440" fill="none" stroke="#101614" stroke-width="17" stroke-linecap="round"/>
      <path d="M505 432 L682 492" fill="none" stroke="url(#chrome)" stroke-width="13" stroke-linecap="round"/>
      <path d="M680 491 L732 507" fill="none" stroke="#f4663a" stroke-width="9" stroke-linecap="round"/>
      <circle cx="371" cy="392" r="22" fill="#f0bc91"/>
      <path d="M50 503 C120 542 241 548 319 506 L339 621 L34 621 Z" fill="#151b18"/>
      <path d="M62 520 C130 553 250 558 326 516" fill="none" stroke="#53d7ff" stroke-width="8" opacity="0.75"/>
      <path d="M108 617 L83 703" fill="none" stroke="#151b18" stroke-width="34" stroke-linecap="round"/>
      <path d="M264 617 L311 702" fill="none" stroke="#151b18" stroke-width="34" stroke-linecap="round"/>
      <path d="M71 705 L174 700" fill="none" stroke="#101614" stroke-width="36" stroke-linecap="round"/>
      <path d="M303 704 L411 704" fill="none" stroke="#101614" stroke-width="36" stroke-linecap="round"/>
    </g>
  </g>

  <g transform="translate(45 560)" filter="url(#softShadow)">
    <path d="M666 85 L786 96 L825 54" fill="none" stroke="url(#chrome)" stroke-width="13" stroke-linecap="round" stroke-linejoin="round"/>
    <circle cx="828" cy="52" r="15" fill="#f8fff8" stroke="#101614" stroke-width="7"/>
    <path d="M157 105 H668 L694 171 H117 Z" fill="#171f1b" stroke="#f3f7ed" stroke-width="7" stroke-linejoin="round"/>
    <path d="M185 46 H363 C394 46 418 71 418 102 V130 H137 V94 C137 67 158 46 185 46 Z" fill="#ffcf57" stroke="#101614" stroke-width="7"/>
    <path d="M191 83 H370" stroke="#101614" stroke-width="11" stroke-linecap="round"/>
    <path d="M223 126 C253 98 302 97 332 126" fill="none" stroke="#101614" stroke-width="9" stroke-linecap="round"/>
    <path d="M448 42 H603 C622 42 638 58 638 77 V138 H423 V67 C423 53 434 42 448 42 Z" fill="#eaffff" stroke="#101614" stroke-width="7"/>
    <path d="M451 78 C500 62 558 62 610 79" fill="none" stroke="#53d7ff" stroke-width="10" stroke-linecap="round"/>
    <circle cx="530" cy="106" r="44" fill="none" stroke="#f4663a" stroke-width="13"/>
    <circle cx="530" cy="106" r="18" fill="#101614"/>
    <path d="M477 145 C503 126 558 126 585 145" fill="none" stroke="#101614" stroke-width="9" stroke-linecap="round"/>
    <rect x="90" y="132" width="632" height="31" rx="12" fill="#f4663a" stroke="#101614" stroke-width="7"/>
    <circle cx="220" cy="180" r="42" fill="#101614" stroke="#dce8e6" stroke-width="10"/>
    <circle cx="220" cy="180" r="14" fill="url(#chrome)"/>
    <circle cx="610" cy="180" r="42" fill="#101614" stroke="#dce8e6" stroke-width="10"/>
    <circle cx="610" cy="180" r="14" fill="url(#chrome)"/>
    <path d="M386 27 C411 0 466 2 491 31" fill="none" stroke="#53d7ff" stroke-width="9" stroke-linecap="round"/>
    <path d="M406 23 C435 43 454 43 478 23" fill="none" stroke="#eaffff" stroke-width="6" stroke-linecap="round"/>
    <path d="M658 69 L720 43" stroke="url(#chrome)" stroke-width="10" stroke-linecap="round"/>
    <path d="M716 42 L742 60" stroke="#101614" stroke-width="8" stroke-linecap="round"/>
  </g>

  <rect x="0" y="0" width="1600" height="950" fill="url(#foamDots)" opacity="0.22"/>
  <path d="M143 794 C219 764 287 773 354 794 C288 816 215 818 143 794 Z" fill="#eaffff" opacity="0.55"/>
  <path d="M1122 838 C1214 805 1301 814 1388 837 C1296 868 1203 866 1122 838 Z" fill="#eaffff" opacity="0.42"/>
  <path d="M586 849 C646 826 718 829 772 849 C704 870 648 870 586 849 Z" fill="#eaffff" opacity="0.35"/>
</svg>
